<svg width="360" height="360" viewBox="0 0 360 360" fill="none" xmlns="http://www.w3.org/2000/svg">
<path d="M177.2 314.9C251.261 314.9 311.3 254.861 311.3 180.8C311.3 106.739 251.261 46.7 177.2 46.7C103.139 46.7 43.1 106.739 43.1 180.8C43.1 254.861 103.139 314.9 177.2 314.9Z" fill="white"/>
<g filter="url(#filter0_d)">
<path d="M304.075 206.197C318.103 136.125 272.671 67.9475 202.599 53.9188C132.527 39.8901 64.3499 85.3223 50.3212 155.394C36.2925 225.466 81.7246 293.644 151.797 307.672C221.869 321.701 290.046 276.269 304.075 206.197Z" fill="#003E7E"/>
</g>
<path d="M258.982 200.451C269.846 155.29 242.044 109.874 196.883 99.0097C151.722 88.1457 106.306 115.949 95.4416 161.109C84.5776 206.27 112.38 251.687 157.541 262.55C202.702 273.414 248.118 245.612 258.982 200.451Z" fill="white"/>
<path d="M355.1 149.8L354.2 149.3C331.5 138.5 307.2 133.2 279.9 133.2C246.3 133.2 212.2 141.2 179.3 149H179.2C174.2 150.1 169.1 151.2 164.2 152.3L163.9 152.4C135.8 158.6 106.7 165.1 80 165.1H79.6C55.7 165 38.2 162.5 11.3 155.2L11 155.1C10.2 154.9 9.40001 154.6 8.50001 154.4L5.80001 153.7L3.60001 153V155.2V159.7V160.7V215V216L4.90001 216.6L5.80001 217.1C28.5 227.9 52.8 233.2 80.1 233.2C113.7 233.2 147.8 225.2 180.7 217.4H180.8C185.9 216.3 191.1 215.2 196.1 214C224.2 207.8 253.3 201.3 280 201.3H280.4C304.3 201.4 321.8 203.9 348.7 211.2L349 211.3C349.8 211.5 350.6 211.8 351.5 212L354.2 212.7L356.4 213.4V211.3V206.8V205.8V151.5V150.5L355.1 149.8Z" fill="white"/>
<path d="M180 158.1C214.1 150.7 248.4 141.9 280.4 142C304.5 142.1 322.6 144.5 352.5 152.8C295.5 125.6 237.7 139.2 180 152.8H179.9C145.8 160.2 111.5 169 79.5 168.9C55.4 168.8 37.3 166.4 7.39999 158.1C64.5 185.4 122.3 171.8 180 158.1Z" fill="#003E7E"/>
<path d="M180 213.4C214.1 206 248.4 197.2 280.4 197.3C304.5 197.4 322.6 199.8 352.5 208.1C295.5 180.9 237.7 194.5 180 208.1H179.9C145.8 215.5 111.5 224.3 79.5 224.2C55.4 224.1 37.3 221.7 7.39999 213.4C64.5 240.7 122.3 227 180 213.4Z" fill="#A0CF67"/>
<path d="M13.7 173.7C13.7 171.5 13.7 170.3 13.7 168.1C20.3 170.6 27.1 172.7 34 174.3C34 176.6 34 177.7 34 179.9C31.3 179.2 29.9 178.9 27.1 178.1C27.1 189.2 27.1 200.3 27.1 211.4C24.5 210.6 23.1 210.2 20.5 209.4C20.5 198.3 20.5 187.2 20.5 176.1C17.8 175.2 16.4 174.7 13.7 173.7Z" fill="#003E7E"/>
<path d="M40.1 175.6C42.7 176.1 44 176.4 46.6 176.8C46.6 182.1 46.6 187.4 46.6 192.7C49.2 193.1 50.6 193.3 53.2 193.7C53.2 188.4 53.2 183.1 53.2 177.8C55.8 178.2 57.2 178.3 59.8 178.6C59.8 191.6 59.8 204.5 59.8 217.5C57.2 217.2 55.8 217.1 53.2 216.7C53.2 210.9 53.2 205.1 53.2 199.3C50.6 198.9 49.2 198.7 46.6 198.3C46.6 204.1 46.6 209.9 46.6 215.7C44 215.3 42.7 215 40.1 214.5C40.1 201.6 40.1 188.6 40.1 175.6Z" fill="#003E7E"/>
<path d="M69.7 218.3C69.7 205.3 69.7 192.4 69.7 179.4C75.4 179.7 81.2 179.8 86.9 179.7C86.9 182 86.9 183.1 86.9 185.3C82.6 185.4 80.5 185.4 76.3 185.3C76.3 189.4 76.3 191.4 76.3 195.5C79.4 195.6 80.9 195.6 84 195.6C84 197.9 84 199 84 201.2C80.9 201.2 79.4 201.2 76.3 201.1C76.3 205.8 76.3 208.1 76.3 212.7C80.6 212.8 82.7 212.8 86.9 212.7C86.9 215 86.9 216.2 86.9 218.5C81.2 218.8 75.4 218.7 69.7 218.3Z" fill="#003E7E"/>
<path d="M273.8 177.2C273.8 170.6 273.8 163.9 273.8 157.3C273.8 154.2 274.7 151.8 276.6 150C278.4 148.2 281 147.3 284.2 147.4C287.3 147.4 289.7 148.4 291.3 150.1C292.9 151.9 293.7 154.4 293.7 157.7C293.7 159.1 293.7 159.8 293.7 161.3C291.2 161.2 289.9 161.1 287.3 161.1C287.3 159.5 287.3 158.6 287.3 157C287.3 155.7 287 154.6 286.4 154C285.8 153.3 285 153 283.9 153C282.8 153 281.9 153.3 281.4 154C280.8 154.7 280.5 155.7 280.5 157C280.5 164.2 280.5 171.5 280.5 178.7C280.5 180 280.8 181.1 281.4 181.7C282 182.4 282.8 182.7 283.9 182.7C285 182.7 285.9 182.4 286.4 181.7C287 181 287.3 180 287.3 178.7C287.3 176.3 287.3 175 287.3 172.6C285.7 172.6 284.9 172.5 283.3 172.5C283.3 170.5 283.3 169.5 283.3 167.5C287.4 167.5 289.5 167.6 293.7 167.8C293.7 174.3 293.7 180.9 293.7 187.4C292.4 187.3 291.8 187.3 290.5 187.3C290 186.2 289.7 185.7 289.2 184.6C288.5 185.8 287.6 186.6 286.6 187.2C285.6 187.8 284.3 188 282.9 188C280 188 277.7 187.1 276.1 185.3C274.6 183.4 273.8 180.7 273.8 177.2Z" fill="#003E7E"/>
<path d="M302.4 149.1C305.1 149.4 306.5 149.5 309.2 149.8C309.2 159.9 309.2 169.9 309.2 179.9C309.2 181 309.5 182 310.2 182.7C310.8 183.5 311.7 183.9 312.7 184.1C313.7 184.3 314.6 184 315.2 183.5C315.8 182.9 316.1 182.1 316.1 180.9C316.1 170.8 316.1 160.8 316.1 150.7C318.8 151.1 320.1 151.4 322.8 151.9C322.8 161.6 322.8 171.3 322.8 181C322.8 184.4 321.9 186.9 320.2 188.4C318.5 189.9 316 190.4 312.7 189.9C309.4 189.4 306.9 188.2 305.1 186.2C303.4 184.2 302.5 181.4 302.5 177.9C302.4 168.4 302.4 158.7 302.4 149.1Z" fill="#003E7E"/>
<path d="M327.9 153.2C330.6 153.8 331.9 154.2 334.6 154.9C336 160.5 337.5 166.1 338.9 171.7C339.1 171.7 339.1 171.8 339.3 171.8C340.9 166.1 341.8 163.2 343.4 157.5C346.1 158.4 347.4 158.9 350.1 159.9C347.5 166.6 344.9 173.3 342.4 180C342.4 185.4 342.4 190.8 342.4 196.2C339.8 195.3 338.4 195 335.8 194.2C335.8 188 335.8 184.9 335.8 178.8C333.2 170.2 330.6 161.7 327.9 153.2Z" fill="#003E7E"/>
<path d="M115.3 100.4L107.6 89.2C106.4 87.5 105.9 85.8 106.2 84.2C106.5 82.6 107.4 81.2 109.1 80.1C110.7 79 112.2 78.7 113.8 79C115.4 79.4 116.8 80.4 118 82.1L119.4 84.2L116 86.6L114.3 84.2C113.8 83.4 113.2 83 112.7 82.8C112.1 82.6 111.6 82.7 111 83.1C110.4 83.5 110.1 84 110.1 84.6C110.1 85.2 110.3 85.8 110.8 86.6L119.2 98.7C119.7 99.5 120.3 99.9 120.8 100.1C121.4 100.3 121.9 100.2 122.5 99.8C123.1 99.4 123.4 98.9 123.4 98.3C123.4 97.7 123.2 97.1 122.7 96.3L120.6 93.3L124 90.9L125.6 93.2C126.9 95.1 127.5 96.9 127.3 98.5C127.1 100.2 126.2 101.6 124.5 102.7C122.8 103.9 121.2 104.3 119.6 103.8C118.2 103.6 116.7 102.4 115.3 100.4Z" fill="white"/>
<path d="M137.4 94.7L127.1 70.3L136.9 66.2L138.4 69.7L132.3 72.3L135 78.7L139.4 76.9L140.9 80.4L136.5 82.2L139.6 89.5L145.7 86.9L147.2 90.6L137.4 94.7Z" fill="white"/>
<path d="M155.5 88L150.6 62L154.2 61.3L162.2 75.9C162.4 76.2 162.5 76.6 162.8 77C163 77.5 163.3 78 163.5 78.5C163.2 77.8 163 77.1 162.8 76.5C162.6 75.9 162.5 75.4 162.4 75.1L159.6 60.3L163.4 59.6L168.3 85.6L164.5 86.3L156.9 72.8C156.9 72.7 156.8 72.7 156.8 72.5C156.3 71.6 155.9 70.8 155.6 70.1C155.9 71 156.2 71.7 156.4 72.3C156.6 72.9 156.7 73.3 156.8 73.6L159.4 87.2L155.5 88Z" fill="white"/>
<path d="M175.9 62.4L176 58.6L188.6 58.8L188.5 62.6L184.3 62.5L183.9 85.1L179.8 85L180.2 62.4H175.9Z" fill="white"/>
<path d="M201.7 76.1L199.4 87L195.4 86.1L201 60.2L206.8 61.5C209 62 210.5 62.9 211.2 64.3C211.9 65.7 212 67.7 211.4 70.3C211 71.9 210.6 73.2 210 74.1C209.4 75 208.6 75.7 207.5 76.1L207.8 88.8L203.7 87.9L203.6 76.5L201.7 76.1ZM204.2 64.9L202.6 72.4L204.2 72.7C205.1 72.9 205.8 72.8 206.3 72.3C206.8 71.8 207.2 70.8 207.5 69.3C207.8 67.9 207.8 67 207.6 66.4C207.3 65.8 206.7 65.4 205.7 65.2L204.2 64.9Z" fill="white"/>
<path d="M214 90.9L228.9 68.6L233.8 70.8L226.8 96.7L223 95L224.6 89.4L220.8 87.7L217.6 92.6L214 90.9ZM222.8 84.5L225.6 85.8L228.9 75.2L228.7 75.1L222.8 84.5Z" fill="white"/>
<path d="M233.4 100.8L248.8 79.2L252.1 81.5L238.9 100L244.1 103.7L241.9 106.8L233.4 100.8Z" fill="white"/>
<path d="M118.6 251.9L121.9 254.2L114.8 268.4C114.4 269.3 113.9 270.1 113.4 270.9C112.9 271.7 112.5 272.4 111.9 273.1L111.6 273.5C112.3 272.6 113 271.7 113.6 270.9C114.3 270.1 114.9 269.4 115.4 268.8L126.4 257.4L129.7 259.7L110.6 278.6L107.1 276.1L118.6 251.9Z" fill="white"/>
<path d="M121.8 285.6L136.8 263.3L141.6 265.5L134.5 291.4L130.7 289.7L132.3 284.1L128.6 282.4L125.4 287.2L121.8 285.6ZM130.7 279.3L133.5 280.6L136.8 270L136.6 269.9L130.7 279.3Z" fill="white"/>
<path d="M145.5 288L148.7 274.8C149.2 272.8 150.1 271.3 151.5 270.4C152.9 269.5 154.5 269.3 156.5 269.8C158.3 270.2 159.7 271.2 160.4 272.6C161.2 274 161.3 275.8 160.9 277.8L160.3 280.3L156.2 279.3L156.9 276.5C157.1 275.6 157.1 274.9 156.9 274.4C156.7 273.9 156.2 273.5 155.5 273.4C154.8 273.2 154.3 273.3 153.8 273.7C153.3 274.1 153 274.7 152.8 275.6L149.4 290C149.2 290.9 149.2 291.6 149.4 292.1C149.6 292.6 150.1 293 150.8 293.1C151.5 293.3 152 293.2 152.5 292.8C153 292.4 153.3 291.8 153.5 290.9L154.3 287.4L158.4 288.4L157.8 291.1C157.3 293.4 156.3 295 155 295.9C153.6 296.9 152 297.1 150 296.6C148 296.1 146.6 295.2 145.9 293.7C145 292.2 144.9 290.3 145.5 288Z" fill="white"/>
<path d="M168.2 272.5L172.4 272.6L171.7 293.1C171.7 293.9 171.8 294.5 172.2 295C172.6 295.5 173.1 295.7 173.7 295.7C174.3 295.7 174.9 295.5 175.2 295.1C175.6 294.7 175.8 294.1 175.8 293.3L176.5 272.8L180.7 272.9L180 292.7C179.9 295 179.3 296.8 178.2 298C177.1 299.2 175.5 299.8 173.5 299.7C171.5 299.6 169.9 298.9 168.9 297.7C167.9 296.4 167.4 294.6 167.5 292.2L168.2 272.5Z" fill="white"/>
<path d="M187.1 272.6L191.2 271.9L194.6 292.1C194.7 292.9 195 293.4 195.5 293.8C196 294.2 196.5 294.3 197.2 294.2C197.8 294.1 198.3 293.8 198.6 293.3C198.9 292.8 199 292.2 198.8 291.4L195.4 271.2L199.5 270.5L202.8 290C203.2 292.3 202.9 294.2 202.1 295.6C201.2 297 199.8 297.9 197.8 298.2C195.8 298.5 194.1 298.2 192.9 297.1C191.6 296 190.8 294.3 190.4 292L187.1 272.6Z" fill="white"/>
<path d="M215.7 293.5L205.6 269L210.6 266.9L218.7 279.4C219 279.9 219.3 280.4 219.7 281C220 281.6 220.3 282.2 220.6 282.9C220.4 282.3 220.2 281.7 220 281.1C219.8 280.5 219.6 279.8 219.5 279.1L216.2 264.5L221.3 262.4L231.4 286.9L227.9 288.4L221.5 273C221.3 272.6 221.1 272 220.8 271.2C220.5 270.4 220.3 269.6 220 268.6C220.1 268.9 220.2 269.4 220.3 270C220.6 271.2 220.7 271.9 220.8 272.3L224.5 289.8L222.6 290.6L212.9 275.6C212.5 275 212.1 274.3 211.6 273.6C211.1 272.9 210.9 272.5 210.8 272.4C211.2 273.2 211.6 274 212 274.7C212.3 275.4 212.6 276 212.9 276.6L219.3 292L215.7 293.5Z" fill="white"/>
<path d="M237.2 275.9L240.1 273.2C240.9 274.3 241.7 274.9 242.4 275.2C243.1 275.5 243.8 275.4 244.5 274.9C245.1 274.5 245.5 273.9 245.6 273.3C245.7 272.6 245.5 272 245.1 271.4C244.3 270.3 242.4 269.4 239.3 268.9L238.8 268.8C235.8 268.3 233.7 267.7 232.6 267.1C231.4 266.5 230.5 265.7 229.7 264.6C228.6 263.1 228.2 261.4 228.5 259.7C228.8 258 229.6 256.6 231.1 255.6C232.5 254.6 234 254.3 235.6 254.6C237.2 254.9 238.6 255.9 239.9 257.4L237 260.2C236.3 259.3 235.6 258.7 235 258.5C234.4 258.3 233.8 258.4 233.2 258.8C232.7 259.2 232.4 259.7 232.3 260.3C232.2 260.9 232.4 261.5 232.8 262.1C233.7 263.4 235.9 264.3 239.4 264.8L239.7 264.9C242.3 265.3 244.2 265.8 245.3 266.4C246.4 267 247.4 267.9 248.3 269.1C249.4 270.7 249.8 272.3 249.6 274C249.3 275.7 248.4 277.1 247 278.1C245.3 279.3 243.7 279.7 241.9 279.3C240.1 278.8 238.6 277.7 237.2 275.9Z" fill="white"/>
<path d="M273.6 175.1V152.4C273.6 140.8 270.3 131.2 263.7 123.9C256.8 116.3 247.6 112.5 236.3 112.5C224.7 112.5 215.3 116.2 208.3 123.5C205.5 126.4 203.3 129.7 201.6 133.4L198.6 114.8H129.8L128.9 120.6L128 114.8H86.3L110 246.9H175.7L176.8 239.5L177.9 246.9H220.2L220.1 246.5C224.7 248.3 229.9 249.2 235.7 249.2C247.6 249.2 257.1 245.2 263.9 237.3C270.3 229.9 273.6 219.9 273.6 207.4V183.8H239.5V175.1H273.6Z" fill="white"/>
<path d="M268 169.6V152.4C268 142.2 265.1 133.8 259.5 127.6C253.7 121.2 245.8 118 236.2 118C226.2 118 218.1 121.1 212.2 127.3C206.3 133.4 203.4 141.7 203.4 152V178.7L193.8 120.3H164.8H160.5H134.4L128.9 157L123.2 120.3H92.8L114.5 241.4H140.5H143.3H170.8L174.4 218.2H179.2L182.5 241.4H213.6L212.5 235C218.1 240.8 225.8 243.7 235.5 243.7C245.7 243.7 253.8 240.3 259.6 233.7C265.1 227.3 267.9 218.5 267.9 207.4V189.3H237.1V210.8C237.1 213.8 236.5 214.8 236.4 215C236.3 215 236 215.1 235.5 215.1C234.9 215.1 234.7 215 234.6 215C234.5 214.9 233.9 213.9 233.9 210.8V150.9C233.9 147.9 234.5 146.9 234.6 146.8C234.7 146.8 235 146.7 235.5 146.7C236.1 146.7 236.4 146.8 236.4 146.8C236.5 146.9 237.1 147.9 237.1 150.9V169.6H268V169.6Z" fill="#003E7E"/>
<path d="M101.1 127.2H117.3L127.2 190.7C127.8 194.8 128.3 198.6 128.6 202.2C128.9 205.8 129 209.4 129 213.1V215C129.1 210.3 129.4 205.9 129.7 201.8C130 197.7 130.4 194 130.8 190.8L140.4 127.3H156.6L137.6 234.6H120.3L101.1 127.2Z" fill="#A0CF67"/>
<path d="M148.7 234.4L166.4 127.1H188L205.6 234.4H188.6L185.3 211.2H168.6L165 234.4H148.7ZM170.6 196H183.2L177.6 151.2H176.6L170.6 196Z" fill="#A0CF67"/>
<path d="M210.3 206.9V151.9C210.3 143.4 212.6 136.8 217.2 132C221.8 127.2 228.2 124.8 236.3 124.8C244 124.8 250 127.3 254.5 132.2C259 137.1 261.2 143.8 261.2 152.3V162.6H244.2V150.8C244.2 147.1 243.5 144.3 242 142.5C240.6 140.6 238.4 139.7 235.6 139.7C232.8 139.7 230.7 140.6 229.2 142.5C227.8 144.4 227 147.1 227 150.8V210.7C227 214.4 227.7 217.2 229.2 219.1C230.6 221 232.8 221.9 235.6 221.9C238.4 221.9 240.5 221 242 219.1C243.4 217.2 244.2 214.4 244.2 210.7V196.1H261.2V207.3C261.2 216.7 259 223.9 254.6 229C250.2 234.1 243.9 236.6 235.7 236.6C227.3 236.6 221 234.1 216.7 229C212.4 224.1 210.3 216.7 210.3 206.9Z" fill="#A0CF67"/>
<defs>
<filter id="filter0_d" x="19.92" y="28.5176" width="314.556" height="314.556" filterUnits="userSpaceOnUse" color-interpolation-filters="sRGB">
<feFlood flood-opacity="0" result="BackgroundImageFix"/>
<feColorMatrix in="SourceAlpha" type="matrix" values="0 0 0 0 0 0 0 0 0 0 0 0 0 0 0 0 0 0 127 0"/>
<feOffset dy="5"/>
<feGaussianBlur stdDeviation="2.5"/>
<feColorMatrix type="matrix" values="0 0 0 0 0 0 0 0 0 0 0 0 0 0 0 0 0 0 0.32 0"/>
<feBlend mode="normal" in2="BackgroundImageFix" result="effect1_dropShadow"/>
<feBlend mode="normal" in="SourceGraphic" in2="effect1_dropShadow" result="shape"/>
</filter>
</defs>
</svg>
