<?xml version="1.0" encoding="utf-8"?>
<!-- Generator: Adobe Illustrator 25.0.1, SVG Export Plug-In . SVG Version: 6.00 Build 0)  -->
<svg version="1.1" id="new_logo" xmlns="http://www.w3.org/2000/svg" xmlns:xlink="http://www.w3.org/1999/xlink" x="0px" y="0px"
	 viewBox="0 0 360 360" style="enable-background:new 0 0 360 360;" xml:space="preserve">
<style type="text/css">
	.st0{fill:#FFFFFF;}
	.st1{fill:#003E7E;}
	.st2{fill:#A0CF67;}
</style>
<circle class="st0" cx="177.2" cy="180.8" r="134.1"/>
<ellipse transform="matrix(0.1963 -0.9805 0.9805 0.1963 -34.8609 319.0491)" class="st1" cx="177.2" cy="180.8" rx="129.4" ry="129.4"/>
<ellipse transform="matrix(0.2339 -0.9723 0.9723 0.2339 -40.0269 310.7825)" class="st0" cx="177.2" cy="180.8" rx="84.1" ry="84.1"/>
<path class="st0" d="M355.1,149.8l-0.9-0.5c-22.7-10.8-47-16.1-74.3-16.1c-33.6,0-67.7,8-100.6,15.8l-0.1,0c-5,1.1-10.1,2.2-15,3.3
	l-0.3,0.1c-28.1,6.2-57.2,12.7-83.9,12.7h-0.4c-23.9-0.1-41.4-2.6-68.3-9.9l-0.3-0.1c-0.8-0.2-1.6-0.5-2.5-0.7l-2.7-0.7l-2.2-0.7
	l0,2.2v4.5v1v54.3v1l1.3,0.6l0.9,0.5c22.7,10.8,47,16.1,74.3,16.1h0c33.6,0,67.7-8,100.6-15.8l0.1,0c5.1-1.1,10.3-2.2,15.3-3.4
	c28.1-6.2,57.2-12.7,83.9-12.7l0.4,0c23.9,0.1,41.4,2.6,68.3,9.9l0.3,0.1c0.8,0.2,1.6,0.5,2.5,0.7l2.7,0.7l2.2,0.7l0-2.1v-4.5v-1
	v-54.3v-1L355.1,149.8z"/>
<g>
	<path class="st1" d="M180,158.1c34.1-7.4,68.4-16.2,100.4-16.1c24.1,0.1,42.2,2.5,72.1,10.8c-57-27.2-114.8-13.6-172.5,0l-0.1,0
		c-34.1,7.4-68.4,16.2-100.4,16.1c-24.1-0.1-42.2-2.5-72.1-10.8C64.5,185.4,122.3,171.8,180,158.1L180,158.1z"/>
</g>
<g>
	<path class="st2" d="M180,213.4c34.1-7.4,68.4-16.2,100.4-16.1c24.1,0.1,42.2,2.5,72.1,10.8c-57-27.2-114.8-13.6-172.5,0l-0.1,0
		c-34.1,7.4-68.4,16.2-100.4,16.1c-24.1-0.1-42.2-2.5-72.1-10.8C64.5,240.7,122.3,227,180,213.4L180,213.4z"/>
</g>
<g>
	<g>
		<path class="st1" d="M13.7,173.7c0-2.2,0-3.4,0-5.6c6.6,2.5,13.4,4.6,20.3,6.2c0,2.3,0,3.4,0,5.6c-2.7-0.7-4.1-1-6.9-1.8
			c0,11.1,0,22.2,0,33.3c-2.6-0.8-4-1.2-6.6-2c0-11.1,0-22.2,0-33.3C17.8,175.2,16.4,174.7,13.7,173.7z"/>
		<path class="st1" d="M40.1,175.6c2.6,0.5,3.9,0.8,6.5,1.2c0,5.3,0,10.6,0,15.9c2.6,0.4,4,0.6,6.6,1c0-5.3,0-10.6,0-15.9
			c2.6,0.4,4,0.5,6.6,0.8c0,13,0,25.9,0,38.9c-2.6-0.3-4-0.4-6.6-0.8c0-5.8,0-11.6,0-17.4c-2.6-0.4-4-0.6-6.6-1c0,5.8,0,11.6,0,17.4
			c-2.6-0.4-3.9-0.7-6.5-1.2C40.1,201.6,40.1,188.6,40.1,175.6z"/>
		<path class="st1" d="M69.7,218.3c0-13,0-25.9,0-38.9c5.7,0.3,11.5,0.4,17.2,0.3c0,2.3,0,3.4,0,5.6c-4.3,0.1-6.4,0.1-10.6,0
			c0,4.1,0,6.1,0,10.2c3.1,0.1,4.6,0.1,7.7,0.1c0,2.3,0,3.4,0,5.6c-3.1,0-4.6,0-7.7-0.1c0,4.7,0,7,0,11.6c4.3,0.1,6.4,0.1,10.6,0
			c0,2.3,0,3.5,0,5.8C81.2,218.8,75.4,218.7,69.7,218.3z"/>
		<path class="st1" d="M273.8,177.2c0-6.6,0-13.3,0-19.9c0-3.1,0.9-5.5,2.8-7.3c1.8-1.8,4.4-2.7,7.6-2.6c3.1,0,5.5,1,7.1,2.7
			c1.6,1.8,2.4,4.3,2.4,7.6c0,1.4,0,2.1,0,3.6c-2.5-0.1-3.8-0.2-6.4-0.2c0-1.6,0-2.5,0-4.1c0-1.3-0.3-2.4-0.9-3
			c-0.6-0.7-1.4-1-2.5-1c-1.1,0-2,0.3-2.5,1c-0.6,0.7-0.9,1.7-0.9,3c0,7.2,0,14.5,0,21.7c0,1.3,0.3,2.4,0.9,3c0.6,0.7,1.4,1,2.5,1
			c1.1,0,2-0.3,2.5-1c0.6-0.7,0.9-1.7,0.9-3c0-2.4,0-3.7,0-6.1c-1.6,0-2.4-0.1-4-0.1c0-2,0-3,0-5c4.1,0,6.2,0.1,10.4,0.3
			c0,6.5,0,13.1,0,19.6c-1.3-0.1-1.9-0.1-3.2-0.1c-0.5-1.1-0.8-1.6-1.3-2.7c-0.7,1.2-1.6,2-2.6,2.6c-1,0.6-2.3,0.8-3.7,0.8
			c-2.9,0-5.2-0.9-6.8-2.7C274.6,183.4,273.8,180.7,273.8,177.2z"/>
		<path class="st1" d="M302.4,149.1c2.7,0.3,4.1,0.4,6.8,0.7c0,10.1,0,20.1,0,30.1c0,1.1,0.3,2.1,1,2.8c0.6,0.8,1.5,1.2,2.5,1.4
			c1,0.2,1.9-0.1,2.5-0.6c0.6-0.6,0.9-1.4,0.9-2.6c0-10.1,0-20.1,0-30.2c2.7,0.4,4,0.7,6.7,1.2c0,9.7,0,19.4,0,29.1
			c0,3.4-0.9,5.9-2.6,7.4c-1.7,1.5-4.2,2-7.5,1.5c-3.3-0.5-5.8-1.7-7.6-3.7c-1.7-2-2.6-4.8-2.6-8.3
			C302.4,168.4,302.4,158.7,302.4,149.1z"/>
		<path class="st1" d="M327.9,153.2c2.7,0.6,4,1,6.7,1.7c1.4,5.6,2.9,11.2,4.3,16.8c0.2,0,0.2,0.1,0.4,0.1c1.6-5.7,2.5-8.6,4.1-14.3
			c2.7,0.9,4,1.4,6.7,2.4c-2.6,6.7-5.2,13.4-7.7,20.1c0,5.4,0,10.8,0,16.2c-2.6-0.9-4-1.2-6.6-2c0-6.2,0-9.3,0-15.4
			C333.2,170.2,330.6,161.7,327.9,153.2z"/>
	</g>
</g>
<g>
	<path class="st0" d="M115.3,100.4l-7.7-11.2c-1.2-1.7-1.7-3.4-1.4-5c0.3-1.6,1.2-3,2.9-4.1c1.6-1.1,3.1-1.4,4.7-1.1
		c1.6,0.4,3,1.4,4.2,3.1l1.4,2.1l-3.4,2.4l-1.7-2.4c-0.5-0.8-1.1-1.2-1.6-1.4c-0.6-0.2-1.1-0.1-1.7,0.3c-0.6,0.4-0.9,0.9-0.9,1.5
		c0,0.6,0.2,1.2,0.7,2l8.4,12.1c0.5,0.8,1.1,1.2,1.6,1.4c0.6,0.2,1.1,0.1,1.7-0.3c0.6-0.4,0.9-0.9,0.9-1.5c0-0.6-0.2-1.2-0.7-2
		l-2.1-3l3.4-2.4l1.6,2.3c1.3,1.9,1.9,3.7,1.7,5.3c-0.2,1.7-1.1,3.1-2.8,4.2c-1.7,1.2-3.3,1.6-4.9,1.1
		C118.2,103.6,116.7,102.4,115.3,100.4z"/>
	<path class="st0" d="M137.4,94.7l-10.3-24.4l9.8-4.1l1.5,3.5l-6.1,2.6l2.7,6.4l4.4-1.8l1.5,3.5l-4.4,1.8l3.1,7.3l6.1-2.6l1.5,3.7
		L137.4,94.7z"/>
	<path class="st0" d="M155.5,88l-4.9-26l3.6-0.7l8,14.6c0.2,0.3,0.3,0.7,0.6,1.1c0.2,0.5,0.5,1,0.7,1.5c-0.3-0.7-0.5-1.4-0.7-2
		c-0.2-0.6-0.3-1.1-0.4-1.4l-2.8-14.8l3.8-0.7l4.9,26l-3.8,0.7l-7.6-13.5c0-0.1-0.1-0.1-0.1-0.3c-0.5-0.9-0.9-1.7-1.2-2.4
		c0.3,0.9,0.6,1.6,0.8,2.2c0.2,0.6,0.3,1,0.4,1.3l2.6,13.6L155.5,88z"/>
	<path class="st0" d="M175.9,62.4l0.1-3.8l12.6,0.2l-0.1,3.8l-4.2-0.1l-0.4,22.6l-4.1-0.1l0.4-22.6L175.9,62.4z"/>
	<path class="st0" d="M201.7,76.1L199.4,87l-4-0.9l5.6-25.9l5.8,1.3c2.2,0.5,3.7,1.4,4.4,2.8c0.7,1.4,0.8,3.4,0.2,6
		c-0.4,1.6-0.8,2.9-1.4,3.8c-0.6,0.9-1.4,1.6-2.5,2l0.3,12.7l-4.1-0.9l-0.1-11.4L201.7,76.1z M204.2,64.9l-1.6,7.5l1.6,0.3
		c0.9,0.2,1.6,0.1,2.1-0.4c0.5-0.5,0.9-1.5,1.2-3c0.3-1.4,0.3-2.3,0.1-2.9c-0.3-0.6-0.9-1-1.9-1.2L204.2,64.9z"/>
	<path class="st0" d="M214,90.9l14.9-22.3l4.9,2.2l-7,25.9l-3.8-1.7l1.6-5.6l-3.8-1.7l-3.2,4.9L214,90.9z M222.8,84.5l2.8,1.3
		l3.3-10.6l-0.2-0.1L222.8,84.5z"/>
	<path class="st0" d="M233.4,100.8l15.4-21.6l3.3,2.3L238.9,100l5.2,3.7l-2.2,3.1L233.4,100.8z"/>
</g>
<g>
	<path class="st0" d="M118.6,251.9l3.3,2.3l-7.1,14.2c-0.4,0.9-0.9,1.7-1.4,2.5c-0.5,0.8-0.9,1.5-1.5,2.2l-0.3,0.4
		c0.7-0.9,1.4-1.8,2-2.6c0.7-0.8,1.3-1.5,1.8-2.1l11-11.4l3.3,2.3l-19.1,18.9l-3.5-2.5L118.6,251.9z"/>
	<path class="st0" d="M121.8,285.6l15-22.3l4.8,2.2l-7.1,25.9l-3.8-1.7l1.6-5.6l-3.7-1.7l-3.2,4.8L121.8,285.6z M130.7,279.3
		l2.8,1.3l3.3-10.6l-0.2-0.1L130.7,279.3z"/>
	<path class="st0" d="M145.5,288l3.2-13.2c0.5-2,1.4-3.5,2.8-4.4c1.4-0.9,3-1.1,5-0.6c1.8,0.4,3.2,1.4,3.9,2.8
		c0.8,1.4,0.9,3.2,0.5,5.2l-0.6,2.5l-4.1-1l0.7-2.8c0.2-0.9,0.2-1.6,0-2.1c-0.2-0.5-0.7-0.9-1.4-1c-0.7-0.2-1.2-0.1-1.7,0.3
		c-0.5,0.4-0.8,1-1,1.9l-3.4,14.4c-0.2,0.9-0.2,1.6,0,2.1c0.2,0.5,0.7,0.9,1.4,1c0.7,0.2,1.2,0.1,1.7-0.3c0.5-0.4,0.8-1,1-1.9
		l0.8-3.5l4.1,1l-0.6,2.7c-0.5,2.3-1.5,3.9-2.8,4.8c-1.4,1-3,1.2-5,0.7c-2-0.5-3.4-1.4-4.1-2.9C145,292.2,144.9,290.3,145.5,288z"/>
	<path class="st0" d="M168.2,272.5l4.2,0.1l-0.7,20.5c0,0.8,0.1,1.4,0.5,1.9c0.4,0.5,0.9,0.7,1.5,0.7c0.6,0,1.2-0.2,1.5-0.6
		c0.4-0.4,0.6-1,0.6-1.8l0.7-20.5l4.2,0.1l-0.7,19.8c-0.1,2.3-0.7,4.1-1.8,5.3c-1.1,1.2-2.7,1.8-4.7,1.7c-2-0.1-3.6-0.8-4.6-2
		c-1-1.3-1.5-3.1-1.4-5.5L168.2,272.5z"/>
	<path class="st0" d="M187.1,272.6l4.1-0.7l3.4,20.2c0.1,0.8,0.4,1.3,0.9,1.7c0.5,0.4,1,0.5,1.7,0.4c0.6-0.1,1.1-0.4,1.4-0.9
		c0.3-0.5,0.4-1.1,0.2-1.9l-3.4-20.2l4.1-0.7l3.3,19.5c0.4,2.3,0.1,4.2-0.7,5.6c-0.9,1.4-2.3,2.3-4.3,2.6c-2,0.3-3.7,0-4.9-1.1
		c-1.3-1.1-2.1-2.8-2.5-5.1L187.1,272.6z"/>
	<path class="st0" d="M215.7,293.5L205.6,269l5-2.1l8.1,12.5c0.3,0.5,0.6,1,1,1.6c0.3,0.6,0.6,1.2,0.9,1.9c-0.2-0.6-0.4-1.2-0.6-1.8
		c-0.2-0.6-0.4-1.3-0.5-2l-3.3-14.6l5.1-2.1l10.1,24.5l-3.5,1.5l-6.4-15.4c-0.2-0.4-0.4-1-0.7-1.8c-0.3-0.8-0.5-1.6-0.8-2.6
		c0.1,0.3,0.2,0.8,0.3,1.4c0.3,1.2,0.4,1.9,0.5,2.3l3.7,17.5l-1.9,0.8l-9.7-15c-0.4-0.6-0.8-1.3-1.3-2c-0.5-0.7-0.7-1.1-0.8-1.2
		c0.4,0.8,0.8,1.6,1.2,2.3c0.3,0.7,0.6,1.3,0.9,1.9l6.4,15.4L215.7,293.5z"/>
	<path class="st0" d="M237.2,275.9l2.9-2.7c0.8,1.1,1.6,1.7,2.3,2c0.7,0.3,1.4,0.2,2.1-0.3c0.6-0.4,1-1,1.1-1.6
		c0.1-0.7-0.1-1.3-0.5-1.9c-0.8-1.1-2.7-2-5.8-2.5l-0.5-0.1c-3-0.5-5.1-1.1-6.2-1.7c-1.2-0.6-2.1-1.4-2.9-2.5
		c-1.1-1.5-1.5-3.2-1.2-4.9c0.3-1.7,1.1-3.1,2.6-4.1c1.4-1,2.9-1.3,4.5-1c1.6,0.3,3,1.3,4.3,2.8l-2.9,2.8c-0.7-0.9-1.4-1.5-2-1.7
		c-0.6-0.2-1.2-0.1-1.8,0.3c-0.5,0.4-0.8,0.9-0.9,1.5c-0.1,0.6,0.1,1.2,0.5,1.8c0.9,1.3,3.1,2.2,6.6,2.7l0.3,0.1
		c2.6,0.4,4.5,0.9,5.6,1.5c1.1,0.6,2.1,1.5,3,2.7c1.1,1.6,1.5,3.2,1.3,4.9c-0.3,1.7-1.2,3.1-2.6,4.1c-1.7,1.2-3.3,1.6-5.1,1.2
		C240.1,278.8,238.6,277.7,237.2,275.9z"/>
</g>
<g>
	<path class="st0" d="M273.6,175.1v-22.7c0-11.6-3.3-21.2-9.9-28.5c-6.9-7.6-16.1-11.4-27.4-11.4c-11.6,0-21,3.7-28,11
		c-2.8,2.9-5,6.2-6.7,9.9l-3-18.6h-68.8l-0.9,5.8l-0.9-5.8H86.3l23.7,132.1h65.7l1.1-7.4l1.1,7.4h42.3l-0.1-0.4
		c4.6,1.8,9.8,2.7,15.6,2.7c11.9,0,21.4-4,28.2-11.9c6.4-7.4,9.7-17.4,9.7-29.9v-23.6h-34.1v-8.7H273.6z"/>
	<g>
		<path class="st1" d="M268,169.6v-17.2c0-10.2-2.9-18.6-8.5-24.8c-5.8-6.4-13.7-9.6-23.3-9.6c-10,0-18.1,3.1-24,9.3
			c-5.9,6.1-8.8,14.4-8.8,24.7v26.7l-9.6-58.4h-29h-4.3h-26.1l-5.5,36.7l-5.7-36.7H92.8l21.7,121.1h26h2.8h27.5l3.6-23.2h4.8
			l3.3,23.2h31.1l-1.1-6.4c5.6,5.8,13.3,8.7,23,8.7c10.2,0,18.3-3.4,24.1-10c5.5-6.4,8.3-15.2,8.3-26.3v-18.1h-30.8v21.5
			c0,3-0.6,4-0.7,4.2c-0.1,0-0.4,0.1-0.9,0.1c-0.6,0-0.8-0.1-0.9-0.1c0,0,0,0,0,0c-0.1-0.1-0.7-1.1-0.7-4.2v-59.9c0-3,0.6-4,0.7-4.1
			c0.1,0,0.4-0.1,0.9-0.1c0.6,0,0.9,0.1,0.9,0.1c0.1,0.1,0.7,1.1,0.7,4.1v18.7H268z"/>
		<g>
			<path class="st2" d="M101.1,127.2h16.2l9.9,63.5c0.6,4.1,1.1,7.9,1.4,11.5c0.3,3.6,0.4,7.2,0.4,10.9v1.9
				c0.1-4.7,0.4-9.1,0.7-13.2c0.3-4.1,0.7-7.8,1.1-11l9.6-63.5h16.2l-19,107.3h-17.3L101.1,127.2z"/>
			<path class="st2" d="M148.7,234.4l17.7-107.3h21.6l17.6,107.3h-17l-3.3-23.2h-16.7l-3.6,23.2H148.7z M170.6,196h12.6l-5.6-44.8
				h-1L170.6,196z"/>
			<path class="st2" d="M210.3,206.9v-55c0-8.5,2.3-15.1,6.9-19.9c4.6-4.8,11-7.2,19.1-7.2c7.7,0,13.7,2.5,18.2,7.4
				c4.5,4.9,6.7,11.6,6.7,20.1v10.3h-17v-11.8c0-3.7-0.7-6.5-2.2-8.3c-1.4-1.9-3.6-2.8-6.4-2.8c-2.8,0-4.9,0.9-6.4,2.8
				c-1.4,1.9-2.2,4.6-2.2,8.3v59.9c0,3.7,0.7,6.5,2.2,8.4c1.4,1.9,3.6,2.8,6.4,2.8c2.8,0,4.9-0.9,6.4-2.8c1.4-1.9,2.2-4.7,2.2-8.4
				v-14.6h17v11.2c0,9.4-2.2,16.6-6.6,21.7c-4.4,5.1-10.7,7.6-18.9,7.6c-8.4,0-14.7-2.5-19-7.6C212.4,224.1,210.3,216.7,210.3,206.9
				z"/>
		</g>
	</g>
</g>
</svg>
