<?xml version="1.0" encoding="utf-8"?>
<!-- Generator: Adobe Illustrator 25.0.1, SVG Export Plug-In . SVG Version: 6.00 Build 0)  -->
<svg version="1.1" id="new_logo" xmlns="http://www.w3.org/2000/svg" xmlns:xlink="http://www.w3.org/1999/xlink" x="0px" y="0px"
	 viewBox="0 0 360 360" style="enable-background:new 0 0 360 360;" xml:space="preserve">
<style type="text/css">
	.st0{fill:#FFFFFF;}
	.st1{fill:#003E7E;}
	.st2{fill:#A0CF67;}
</style>
<g>
	<g>
		<g>
			<path class="st0" d="M13.7,172.9c0-2.2,0-3.4,0-5.6c6.6,2.5,13.4,4.6,20.3,6.2c0,2.3,0,3.4,0,5.6c-2.7-0.7-4.1-1-6.9-1.8
				c0,11.1,0,22.2,0,33.3c-2.6-0.8-4-1.2-6.6-2c0-11.1,0-22.2,0-33.3C17.8,174.4,16.4,173.9,13.7,172.9z"/>
			<path class="st0" d="M40.1,174.9c2.6,0.5,3.9,0.8,6.5,1.2c0,5.3,0,10.6,0,15.9c2.6,0.4,4,0.6,6.6,1c0-5.3,0-10.6,0-15.9
				c2.6,0.4,4,0.5,6.6,0.8c0,13,0,25.9,0,38.9c-2.6-0.3-4-0.4-6.6-0.8c0-5.8,0-11.6,0-17.4c-2.6-0.4-4-0.6-6.6-1
				c0,5.8,0,11.6,0,17.4c-2.6-0.4-3.9-0.7-6.5-1.2C40.1,200.8,40.1,187.8,40.1,174.9z"/>
			<path class="st0" d="M69.7,217.6c0-13,0-25.9,0-38.9c5.7,0.3,11.5,0.4,17.2,0.3c0,2.3,0,3.4,0,5.6c-4.3,0.1-6.4,0.1-10.6,0
				c0,4.1,0,6.1,0,10.2c3.1,0.1,4.6,0.1,7.7,0.1c0,2.3,0,3.4,0,5.6c-3.1,0-4.6,0-7.7-0.1c0,4.7,0,7,0,11.6c4.3,0.1,6.4,0.1,10.6,0
				c0,2.3,0,3.5,0,5.8C81.2,218,75.4,217.9,69.7,217.6z"/>
			<path class="st0" d="M273.8,176.4c0-6.6,0-13.3,0-19.9c0-3.1,0.9-5.5,2.8-7.3c1.8-1.8,4.4-2.7,7.6-2.6c3.1,0,5.5,1,7.1,2.7
				c1.6,1.8,2.4,4.3,2.4,7.6c0,1.4,0,2.1,0,3.6c-2.5-0.1-3.8-0.2-6.4-0.2c0-1.6,0-2.5,0-4.1c0-1.3-0.3-2.4-0.9-3
				c-0.6-0.7-1.4-1-2.5-1c-1.1,0-2,0.3-2.5,1c-0.6,0.7-0.9,1.7-0.9,3c0,7.2,0,14.5,0,21.7c0,1.3,0.3,2.4,0.9,3c0.6,0.7,1.4,1,2.5,1
				c1.1,0,2-0.3,2.5-1c0.6-0.7,0.9-1.7,0.9-3c0-2.4,0-3.7,0-6.1c-1.6,0-2.4-0.1-4-0.1c0-2,0-3,0-5c4.1,0,6.2,0.1,10.4,0.3
				c0,6.5,0,13.1,0,19.6c-1.3-0.1-1.9-0.1-3.2-0.1c-0.5-1.1-0.8-1.6-1.3-2.7c-0.7,1.2-1.6,2-2.6,2.6c-1,0.6-2.3,0.8-3.7,0.8
				c-2.9,0-5.2-0.9-6.8-2.7C274.6,182.6,273.8,179.9,273.8,176.4z"/>
			<path class="st0" d="M302.3,148.3c2.7,0.3,4.1,0.4,6.8,0.7c0,10.1,0,20.1,0,30.1c0,1.1,0.3,2.1,1,2.8c0.6,0.8,1.5,1.2,2.5,1.4
				c1,0.2,1.9-0.1,2.5-0.6c0.6-0.6,0.9-1.4,0.9-2.6c0-10.1,0-20.1,0-30.2c2.7,0.4,4,0.7,6.7,1.2c0,9.7,0,19.4,0,29.1
				c0,3.4-0.9,5.9-2.6,7.4c-1.7,1.5-4.2,2-7.5,1.5c-3.3-0.5-5.8-1.7-7.6-3.7c-1.7-2-2.6-4.8-2.6-8.3
				C302.3,167.6,302.3,157.9,302.3,148.3z"/>
			<path class="st0" d="M327.9,152.4c2.7,0.6,4,1,6.7,1.7c1.4,5.6,2.9,11.2,4.3,16.8c0.2,0,0.2,0.1,0.4,0.1
				c1.6-5.7,2.5-8.6,4.1-14.3c2.7,0.9,4,1.4,6.7,2.4c-2.6,6.7-5.2,13.4-7.7,20.1c0,5.4,0,10.8,0,16.2c-2.6-0.9-4-1.2-6.6-2
				c0-6.2,0-9.3,0-15.4C333.2,169.4,330.6,160.9,327.9,152.4z"/>
		</g>
	</g>
	<path class="st0" d="M177.2,50.6C111.7,50.6,57.5,99.3,49,162.4c9.9,1.3,19.6,1.9,30.6,1.9H80c4.8,0,9.7-0.2,14.6-0.6
		c0.1-0.5,0.2-0.9,0.3-1.3L86.2,114h38.8c14.3-11.3,32.4-18.1,52.1-18.1c18.8,0,36.2,6.2,50.2,16.6c2.8-0.5,5.7-0.8,8.9-0.8
		c11.3,0,20.5,3.8,27.4,11.4c2.6,2.9,4.7,6.1,6.3,9.6c3.3-0.2,6.7-0.2,10-0.2c6.2,0,12.2,0.3,18,0.8
		C279.2,84.9,232.2,50.6,177.2,50.6z M127.4,97.9c-0.2,1.7-1.1,3.1-2.8,4.2c-1.7,1.2-3.3,1.6-4.9,1.1c-1.6-0.4-3.1-1.6-4.4-3.6
		l-7.7-11.2c-1.2-1.7-1.7-3.4-1.4-5c0.3-1.6,1.2-3,2.9-4.1c1.6-1.1,3.1-1.4,4.7-1.1c1.6,0.4,3,1.4,4.2,3.1l1.4,2.1l-3.4,2.4
		l-1.7-2.4c-0.5-0.8-1.1-1.2-1.6-1.4c-0.6-0.2-1.1-0.1-1.7,0.3c-0.6,0.4-0.9,0.9-0.9,1.5c0,0.6,0.2,1.2,0.7,2l8.4,12.1
		c0.5,0.8,1.1,1.2,1.6,1.4c0.6,0.2,1.1,0.1,1.7-0.3c0.6-0.4,0.9-0.9,0.9-1.5c0-0.6-0.2-1.2-0.7-2l-2.1-3l3.4-2.4l1.6,2.3
		C127,94.5,127.6,96.3,127.4,97.9z M137.4,93.9l-10.3-24.4l9.8-4.1l1.5,3.5l-6.1,2.6l2.7,6.4l4.4-1.8l1.5,3.5l-4.4,1.8l3.1,7.3
		l6.1-2.6l1.5,3.7L137.4,93.9z M164.5,85.5L156.9,72c0-0.1-0.1-0.1-0.1-0.3c-0.5-0.9-0.9-1.7-1.2-2.4c0.3,0.9,0.6,1.6,0.8,2.2
		c0.2,0.6,0.3,1,0.4,1.3l2.6,13.6l-3.7,0.7l-4.9-26l3.6-0.7l8,14.6c0.2,0.3,0.3,0.7,0.6,1.1c0.2,0.5,0.5,1,0.7,1.5
		c-0.3-0.7-0.5-1.4-0.7-2c-0.2-0.6-0.3-1.1-0.4-1.4l-2.8-14.8l3.8-0.7l4.9,26L164.5,85.5z M188.5,61.8l-4.2-0.1l-0.4,22.6l-4.1-0.1
		l0.4-22.6l-4.2-0.1l0.1-3.8l12.6,0.2L188.5,61.8z M211.4,69.6c-0.4,1.6-0.8,2.9-1.4,3.8c-0.6,0.9-1.4,1.6-2.5,2l0.3,12.7l-4.1-0.9
		l-0.1-11.4l-1.9-0.4l-2.4,10.9l-4-0.9l5.6-25.9l5.8,1.3c2.2,0.5,3.7,1.4,4.4,2.8C211.9,65,212,67,211.4,69.6z M226.8,95.9l-3.8-1.7
		l1.6-5.6l-3.8-1.7l-3.2,4.9l-3.7-1.7l14.9-22.3l4.9,2.2L226.8,95.9z M244.1,102.9l-2.2,3.1l-8.5-6l15.4-21.6l3.3,2.3l-13.1,18.4
		L244.1,102.9z"/>
	<polygon class="st0" points="228.7,74.2 222.8,83.7 225.7,85 229,74.3 	"/>
	<g>
		<polygon class="st0" points="130.7,278.5 133.5,279.8 136.8,269.1 136.6,269 		"/>
		<path class="st0" d="M280.4,200.4l-0.4,0c-2.1,0-4.3,0.1-6.4,0.1v6.1c0,12.4-3.3,22.5-9.7,29.9c-6.9,7.9-16.4,11.9-28.2,11.9
			c-2.9,0-5.7-0.2-8.4-0.7c-14,10.4-31.3,16.5-50,16.5c-19.7,0-37.8-6.8-52.1-18.1h-15.1l-2.8-15.4c-9,1-18,1.6-27,1.6h0
			c-7.5,0-14.8-0.4-21.9-1.2c19.8,46.1,65.6,78.4,119,78.4c64.1,0,117.4-46.7,127.6-107.9C297,200.7,289.1,200.4,280.4,200.4z
			 M107.2,275.5l11.4-24.4l3.3,2.3l-7.1,14.2c-0.4,0.9-0.9,1.7-1.4,2.5c-0.5,0.8-0.9,1.5-1.5,2.2l-0.3,0.4c0.7-0.9,1.4-1.8,2-2.6
			c0.7-0.8,1.3-1.5,1.8-2.1l11-11.4l3.3,2.3l-19.1,18.9L107.2,275.5z M134.6,290.7l-3.8-1.7l1.6-5.6l-3.7-1.7l-3.2,4.8l-3.6-1.7
			l15-22.3l4.8,2.2L134.6,290.7z M160.8,277l-0.6,2.5l-4.1-1l0.7-2.8c0.2-0.9,0.2-1.6,0-2.1c-0.2-0.5-0.7-0.9-1.4-1
			c-0.7-0.2-1.2-0.1-1.7,0.3c-0.5,0.4-0.8,1-1,1.9l-3.4,14.4c-0.2,0.9-0.2,1.6,0,2.1c0.2,0.5,0.7,0.9,1.4,1c0.7,0.2,1.2,0.1,1.7-0.3
			c0.5-0.4,0.8-1,1-1.9l0.8-3.5l4.1,1l-0.6,2.7c-0.5,2.3-1.5,3.9-2.8,4.8c-1.4,1-3,1.2-5,0.7c-2-0.5-3.4-1.4-4.1-2.9
			c-0.7-1.5-0.8-3.4-0.3-5.7l3.2-13.2c0.5-2,1.4-3.5,2.8-4.4c1.4-0.9,3-1.1,5-0.6c1.8,0.4,3.2,1.4,3.9,2.8
			C161.1,273.2,161.3,275,160.8,277z M180,292c-0.1,2.3-0.7,4.1-1.8,5.3c-1.1,1.2-2.7,1.8-4.7,1.7c-2-0.1-3.6-0.8-4.6-2
			c-1-1.3-1.5-3.1-1.4-5.5l0.7-19.7l4.2,0.1l-0.7,20.5c0,0.8,0.1,1.4,0.5,1.9c0.4,0.5,0.9,0.7,1.5,0.7c0.6,0,1.2-0.2,1.5-0.6
			c0.4-0.4,0.6-1,0.6-1.8l0.7-20.5l4.2,0.1L180,292z M202,294.8c-0.9,1.4-2.3,2.3-4.3,2.6c-2,0.3-3.7,0-4.9-1.1
			c-1.3-1.1-2.1-2.8-2.5-5.1l-3.2-19.4l4.1-0.7l3.4,20.2c0.1,0.8,0.4,1.3,0.9,1.7c0.5,0.4,1,0.5,1.7,0.4c0.6-0.1,1.1-0.4,1.4-0.9
			c0.3-0.5,0.4-1.1,0.2-1.9l-3.4-20.2l4.1-0.7l3.3,19.5C203.1,291.5,202.9,293.4,202,294.8z M227.8,287.7l-6.4-15.4
			c-0.2-0.4-0.4-1-0.7-1.8c-0.3-0.8-0.5-1.6-0.8-2.6c0.1,0.3,0.2,0.8,0.3,1.4c0.3,1.2,0.4,1.9,0.5,2.3l3.7,17.5l-1.9,0.8l-9.7-15
			c-0.4-0.6-0.8-1.3-1.3-2c-0.5-0.7-0.7-1.1-0.8-1.2c0.4,0.8,0.8,1.6,1.2,2.3c0.3,0.7,0.6,1.3,0.9,1.9l6.4,15.4l-3.5,1.5l-10.1-24.5
			l5-2.1l8.1,12.5c0.3,0.5,0.6,1,1,1.6c0.3,0.6,0.6,1.2,0.9,1.9c-0.2-0.6-0.4-1.2-0.6-1.8c-0.2-0.6-0.4-1.3-0.5-2l-3.3-14.6l5.1-2.1
			l10.1,24.5L227.8,287.7z M249.5,273.1c-0.3,1.7-1.2,3.1-2.6,4.1c-1.7,1.2-3.3,1.6-5.1,1.2c-1.7-0.4-3.3-1.5-4.7-3.3l2.9-2.7
			c0.8,1.1,1.6,1.7,2.3,2c0.7,0.3,1.4,0.2,2.1-0.3c0.6-0.4,1-1,1.1-1.6c0.1-0.7-0.1-1.3-0.5-1.9c-0.8-1.1-2.7-2-5.8-2.5l-0.5-0.1
			c-3-0.5-5.1-1.1-6.2-1.7s-2.1-1.4-2.9-2.5c-1.1-1.5-1.5-3.2-1.2-4.9c0.3-1.7,1.1-3.1,2.6-4.1c1.4-1,2.9-1.3,4.5-1
			c1.6,0.3,3,1.3,4.3,2.8l-2.9,2.8c-0.7-0.9-1.4-1.5-2-1.7c-0.6-0.2-1.2-0.1-1.8,0.3c-0.5,0.4-0.8,0.9-0.9,1.5
			c-0.1,0.6,0.1,1.2,0.5,1.8c0.9,1.3,3.1,2.2,6.6,2.7l0.3,0.1c2.6,0.4,4.5,0.9,5.6,1.5c1.1,0.6,2.1,1.5,3,2.7
			C249.4,269.8,249.8,271.4,249.5,273.1z"/>
	</g>
	<g>
		<polygon class="st0" points="176.5,150.4 170.6,195.2 183.2,195.2 177.5,150.4 		"/>
		<path class="st0" d="M268,168.8v-17.2c0-10.2-2.9-18.6-8.5-24.8c-5.8-6.4-13.7-9.6-23.3-9.6c-10,0-18.1,3.1-24,9.3
			c-5.9,6.1-8.8,14.4-8.8,24.7v26.7l-9.6-58.4h-29h-4.3h-26.1l-5.5,36.7l-5.7-36.7H92.8l21.7,121.1h26h2.8h27.5l3.6-23.2h4.8
			l3.3,23.2h31.1l-1.1-6.4c5.6,5.8,13.3,8.7,23,8.7c10.2,0,18.3-3.4,24.1-10c5.5-6.4,8.3-15.2,8.3-26.3v-18.1h-30.8V210
			c0,3-0.6,4-0.7,4.2c-0.1,0-0.4,0.1-0.9,0.1c-0.6,0-0.8-0.1-0.9-0.1c0,0,0,0,0,0c-0.1-0.1-0.7-1.1-0.7-4.2v-59.9c0-3,0.6-4,0.7-4.1
			c0.1,0,0.4-0.1,0.9-0.1c0.6,0,0.9,0.1,0.9,0.1c0.1,0.1,0.7,1.1,0.7,4.1v18.7H268z M137.6,233.6h-17.3l-19.2-107.3h16.2l9.9,63.5
			c0.6,4.1,1.1,7.9,1.4,11.5c0.3,3.6,0.4,7.2,0.4,10.9v1.9c0.1-4.7,0.4-9.1,0.7-13.2c0.3-4.1,0.7-7.8,1.1-11l9.6-63.5h16.2
			L137.6,233.6z M188.5,233.6l-3.3-23.2h-16.7l-3.6,23.2h-16.2l17.7-107.3h21.6l17.6,107.3H188.5z M235.6,139
			c-2.8,0-4.9,0.9-6.4,2.8c-1.4,1.9-2.2,4.6-2.2,8.3V210c0,3.7,0.7,6.5,2.2,8.4c1.4,1.9,3.6,2.8,6.4,2.8c2.8,0,4.9-0.9,6.4-2.8
			c1.4-1.9,2.2-4.7,2.2-8.4v-14.6h17v11.2c0,9.4-2.2,16.6-6.6,21.7c-4.4,5.1-10.7,7.6-18.9,7.6c-8.4,0-14.7-2.5-19-7.6
			c-4.3-5-6.4-12.5-6.4-22.3v-55c0-8.5,2.3-15.1,6.9-19.9c4.6-4.8,11-7.2,19.1-7.2c7.7,0,13.7,2.5,18.2,7.4
			c4.5,4.9,6.7,11.6,6.7,20.1v10.3h-17v-11.8c0-3.7-0.7-6.5-2.2-8.3C240.6,139.9,238.4,139,235.6,139z"/>
	</g>
	<path class="st0" d="M280.4,141.2c24.1,0.1,42.2,2.5,72.1,10.8c-26.9-12.9-54-16.6-81.2-15.5c0.5,1.6,0.9,3.2,1.3,4.9
		C275.2,141.3,277.8,141.2,280.4,141.2z"/>
	<path class="st0" d="M79.6,168.2c-24.1-0.1-42.2-2.5-72.1-10.8c29.6,14.1,59.4,17.3,89.2,15.1l-0.9-4.9
		C90.4,168,84.9,168.2,79.6,168.2z"/>
	<path class="st0" d="M79.6,223.5c-24.1-0.1-42.2-2.5-72.1-10.8c32.8,15.7,65.8,17.8,99,14.2l-0.9-5
		C96.8,222.9,88.1,223.5,79.6,223.5z"/>
	<path class="st0" d="M273.5,191.7v4.9c2.3-0.1,4.6-0.1,6.9-0.1c24.1,0.1,42.2,2.5,72.1,10.8C326.3,194.8,300,191,273.5,191.7z"/>
</g>
</svg>
